# xmcd
#
# Track frame offsets:
#	150
#	12958
#	25053
#	36803
#	41986
#	52813
#	64405
#	77434
#	91582
#	103393
#	114323
#	125814
#	138021
#	148635
#	159783
#
# Disc length: 2273 seconds
#
# Revision: 0
# Processed by: cddbd v1.5.1PL0 Copyright (c) Steve Scherf et al.
# Submitted via: dBpowerAMP V4.0
#
DISCID=bc08df0f
DTITLE=Jim Reeves - Gentleman Jim  (Proper)
DYEAR=2003
DGENRE=Country
TTITLE0=Bimbo
TTITLE1=Mexican Joe
TTITLE2=Whispering Willow
TTITLE3=I'll Always Love You
TTITLE4=Where Does A Broken Heart Go
TTITLE5=I Love You More
TTITLE6=A Woman's Love
TTITLE7=Each Beat Of My Heart
TTITLE8=If You Love Me, Don't Leave Me
TTITLE9=My Ramblin' Heart
TTITLE10=Penny Candy
TTITLE11=Shall We Gather At The River
TTITLE12=Hillbilly Waltz
TTITLE13=Gypsy Heart
TTITLE14=Then I'll Stop Loving You
EXTD=
EXTT0=
EXTT1=
EXTT2=
EXTT3=
EXTT4=
EXTT5=
EXTT6=
EXTT7=
EXTT8=
EXTT9=
EXTT10=
EXTT11=
EXTT12=
EXTT13=
EXTT14=
PLAYORDER=
